<svg width="39" height="35" viewBox="0 0 39 35" fill="none" xmlns="http://www.w3.org/2000/svg">
<path d="M22.5469 0H37.1719C38.1815 0 39 0.839453 39 1.875V14.375C39 15.4105 38.1815 16.25 37.1719 16.25H22.5469C21.5372 16.25 20.7188 15.4105 20.7188 14.375V1.875C20.7188 0.839453 21.5372 0 22.5469 0ZM16.4531 0H1.82812C0.818467 0 0 0.839453 0 1.875V14.375C0 15.4105 0.818467 16.25 1.82812 16.25H16.4531C17.4628 16.25 18.2812 15.4105 18.2812 14.375V1.875C18.2812 0.839453 17.4628 0 16.4531 0ZM0 20.625V33.125C0 34.1605 0.818467 35 1.82812 35H16.4531C17.4628 35 18.2812 34.1605 18.2812 33.125V20.625C18.2812 19.5895 17.4628 18.75 16.4531 18.75H1.82812C0.818467 18.75 0 19.5895 0 20.625ZM22.5469 35H37.1719C38.1815 35 39 34.1605 39 33.125V20.625C39 19.5895 38.1815 18.75 37.1719 18.75H22.5469C21.5372 18.75 20.7188 19.5895 20.7188 20.625V33.125C20.7188 34.1605 21.5372 35 22.5469 35Z" fill="#10027E"/>
</svg>
